# xmcd
#
# Track frame offsets: 
#        150
#        17539
#        34628
#        52429
#        77023
#        100118
#        126043
#        145196
#        162999
#        186658
#        215419
#        252113
#        273100
#        293520
#        311438
#
# Disc length: 4587 seconds
#
# Revision: 1
# Processed by: cddbd v1.5.2PL0 Copyright (c) Steve Scherf et al.
# Submitted via: ExactAudioCopyFreeDBPlugin 1.0
#
DISCID=cf11e90f
DTITLE=Ann Peebles - Brand New Classics
DYEAR=2006
DGENRE=Soul
TTITLE0=I'll Get Along
TTITLE1=(You Keep Me) Hanging On
TTITLE2=I'm Gonna Tear Your Playhouse Down
TTITLE3=I Want to Know What Love Is
TTITLE4=Walk Away
TTITLE5=I Still Love You
TTITLE6=The Handwriting is on the Wall
TTITLE7=Love Vibration
TTITLE8=I'm So Thankful
TTITLE9=Feel Like Breaking Up Somebody's Home
TTITLE10=Chase These Blues Away
TTITLE11=Miss You
TTITLE12=Tears in Heaven
TTITLE13=I Can't Stand the Rain
TTITLE14=Spread
EXTD=
EXTT0=
EXTT1=
EXTT2=
EXTT3=
EXTT4=
EXTT5=
EXTT6=
EXTT7=
EXTT8=
EXTT9=
EXTT10=
EXTT11=
EXTT12=
EXTT13=
EXTT14=
PLAYORDER=
